<svg xmlns="http://www.w3.org/2000/svg" viewBox="0 0 1000 760"><defs><linearGradient id="a" x1="0" y1="0" x2="1" y2="1"><stop stop-color="#dfe9ef"/><stop offset=".45" stop-color="#71828c"/><stop offset="1" stop-color="#273841"/></linearGradient><filter id="b"><feGaussianBlur stdDeviation="35"/></filter></defs><rect width="1000" height="760" rx="60" fill="#081014"/><circle cx="500" cy="380" r="240" fill="#8bd0d0" opacity=".10" filter="url(#b)"/><g opacity=".18" stroke="#a9c7ce"><path d="M0 95h1000M0 190h1000M0 285h1000M0 380h1000M0 475h1000M0 570h1000M0 665h1000M125 0v760M250 0v760M375 0v760M500 0v760M625 0v760M750 0v760M875 0v760"/></g><circle cx="500" cy="348" r="220" fill="none" stroke="#9ab3ba" stroke-width="2" opacity=".45"/><circle cx="500" cy="348" r="170" fill="none" stroke="#9ab3ba" stroke-width="3" stroke-dasharray="8 16" opacity=".55"/><circle cx="500" cy="348" r="112" fill="url(#a)"/><circle cx="500" cy="348" r="86" fill="#101c21"/><path d="M500 282c16 0 29 13 29 29s-13 29-29 29-29-13-29-29 13-29 29-29Zm-57 71c14 0 25 11 25 25s-11 25-25 25-25-11-25-25 11-25 25-25Zm114 0c14 0 25 11 25 25s-11 25-25 25-25-11-25-25 11-25 25-25Zm-57 5c14 0 25 11 25 25s-11 25-25 25-25-11-25-25 11-25 25-25Zm0 56c28 0 51 23 51 51 0 18-10 35-25 44h-52c-15-9-25-26-25-44 0-28 23-51 51-51Z" fill="#d7e1e6"/><path d="M120 600h270M610 600h270" stroke="#78909a" stroke-width="3"/><path d="M100 90h55v-18M900 90h-55v-18M100 670h55v18M900 670h-55v18" fill="none" stroke="#c4d4d9" stroke-width="4"/></svg>