<svg xmlns="http://www.w3.org/2000/svg" viewBox="0 0 1000 760"><defs><linearGradient id="a" x1="0" y1="0" x2="1" y2="1"><stop stop-color="#85f0dd"/><stop offset="1" stop-color="#4b9cff"/></linearGradient><filter id="b"><feGaussianBlur stdDeviation="32"/></filter></defs><rect width="1000" height="760" rx="60" fill="#082329"/><circle cx="200" cy="620" r="150" fill="#45d1bb" opacity=".25" filter="url(#b)"/><path d="M150 560C290 430 345 540 470 385s205-92 350-240" fill="none" stroke="url(#a)" stroke-width="12" stroke-linecap="round" stroke-dasharray="2 28"/><g fill="#0b2730" stroke="#8ff5e3" stroke-width="5"><circle cx="150" cy="560" r="30"/><circle cx="470" cy="385" r="30"/><circle cx="820" cy="145" r="30"/></g><g transform="translate(310 130)"><rect width="360" height="420" rx="42" fill="#f5fffd"/><rect x="28" y="28" width="304" height="364" rx="28" fill="#dff8f4"/><path d="M95 112h170M95 160h120M95 208h150" stroke="#0b5660" stroke-width="18" stroke-linecap="round"/><rect x="92" y="278" width="176" height="62" rx="31" fill="url(#a)"/><path d="M150 309h60" stroke="#082329" stroke-width="12" stroke-linecap="round"/></g><path d="M700 500c0-52 42-94 94-94s94 42 94 94-42 94-94 94h-24l-54 46 10-58c-16-17-26-39-26-82Z" fill="#5be1cb" opacity=".92"/><path d="M754 493h80M754 528h52" stroke="#082329" stroke-width="13" stroke-linecap="round"/></svg>