<svg xmlns="http://www.w3.org/2000/svg" viewBox="0 0 520 420" role="img" aria-labelledby="t d">
<title id="t">PixelWar world grid</title><desc id="d">A stylized world map made of glowing grid cells.</desc>
<defs>
  <linearGradient id="g" x1="0" y1="0" x2="1" y2="1"><stop stop-color="#3182f6"/><stop offset="1" stop-color="#8d6cff"/></linearGradient>
  <filter id="s"><feGaussianBlur stdDeviation="8"/></filter>
</defs>
<rect width="520" height="420" rx="56" fill="#0b1020"/>
<ellipse cx="260" cy="210" rx="184" ry="150" fill="none" stroke="#2b3553" stroke-width="2"/>
<ellipse cx="260" cy="210" rx="132" ry="150" fill="none" stroke="#202a46" stroke-width="1.5"/>
<ellipse cx="260" cy="210" rx="62" ry="150" fill="none" stroke="#202a46" stroke-width="1.5"/>
<path d="M76 210h368M90 158h340M105 262h310" fill="none" stroke="#202a46" stroke-width="1.5"/>
<g opacity=".4" filter="url(#s)"><circle cx="211" cy="178" r="62" fill="#3182f6"/><circle cx="330" cy="236" r="58" fill="#8d6cff"/></g>
<g fill="url(#g)">
  <rect x="171" y="142" width="20" height="20" rx="4"/><rect x="194" y="142" width="20" height="20" rx="4"/>
  <rect x="217" y="165" width="20" height="20" rx="4"/><rect x="240" y="165" width="20" height="20" rx="4"/>
  <rect x="286" y="188" width="20" height="20" rx="4"/><rect x="309" y="188" width="20" height="20" rx="4"/>
  <rect x="332" y="211" width="20" height="20" rx="4"/><rect x="309" y="234" width="20" height="20" rx="4"/>
  <rect x="263" y="234" width="20" height="20" rx="4"/><rect x="217" y="211" width="20" height="20" rx="4"/>
  <rect x="194" y="234" width="20" height="20" rx="4"/><rect x="148" y="188" width="20" height="20" rx="4"/>
</g>
<g fill="#fff" opacity=".92"><circle cx="181" cy="152" r="3"/><circle cx="319" cy="198" r="3"/><circle cx="273" cy="244" r="3"/></g>
<path d="M145 300c55 34 177 38 236 0" fill="none" stroke="url(#g)" stroke-width="5" stroke-linecap="round"/>
</svg>